<svg width="296" height="199" viewBox="0 0 296 199" fill="none" xmlns="http://www.w3.org/2000/svg">
<path fill-rule="evenodd" clip-rule="evenodd" d="M91.8715 136.421C90.3106 137.929 90.235 141.025 90.0087 143.025C91.0061 138.236 95.6691 133.788 98.5375 130.052C101.328 126.415 103.871 122.573 106.033 118.521C106.081 118.433 110.784 109.355 107.158 110.361C97.0931 113.108 98.4596 130.577 91.8715 136.421ZM107.599 62.3253C109.316 66.5111 118.293 86.4468 124.569 82.3301C129.564 79.0534 124.398 66.6297 121.699 63.4345C117.201 58.1182 112.116 53.3991 107.945 47.7739C107.225 52.8587 105.524 57.3152 107.599 62.3253ZM247.546 102.623C251.978 103.124 256.429 103.602 260.887 103.777C255.813 103.196 250.831 102.496 245.717 102.442L247.546 102.623L247.546 102.623ZM0.786706 120.905C0.494711 118.411 6.48623 115.919 7.988 114.988C12.1057 112.433 16.4177 109.522 18.1904 105.161C20.1816 101.899 11.4036 101.529 9.01275 100.437C7.33641 99.6717 3.29765 97.5231 2.88154 95.4714C1.99088 91.0755 8.73217 90.6269 11.7682 90.0774C16.2151 89.2734 18.4718 89.3646 14.7375 86.4876C10.7227 83.3959 1.03773 81.0615 1.72233 74.1534C2.30626 68.2695 12.3802 68.4487 16.3616 68.5855C23.8647 68.8372 29.8908 71.5417 35.8125 75.9905C37.1936 77.0271 45.6847 82.839 45.6771 80.3517C45.0309 74.7467 38.4921 72.0128 37.0834 66.6729C36.2831 63.638 36.865 61.1715 35.6483 58.0675C34.4477 55.0026 31.5735 50.2171 34.3242 47.052C36.0709 45.0438 38.8572 45.378 40.7017 46.6289C45.2854 49.3079 47.7738 53.331 51.4756 56.9683C54.1854 59.6288 57.9693 59.9121 60.0453 63.3494C63.1516 68.6457 66.1358 74.469 69.762 79.5997C70.8985 81.208 76.3357 88.2711 77.8414 84.3649C78.6895 82.1653 72.7264 76.4166 71.8104 75.2767C69.6227 72.5517 67.1531 70.1138 66.5368 66.4963C66.1834 64.4227 67.1387 62.5518 66.8501 60.9351C65.9948 56.1565 61.1005 51.4425 59.6283 46.7176C58.3077 42.4775 55.4318 31.879 58.1436 27.8998C61.856 22.451 66.2826 30.4242 68.6841 33.4685C71.3417 36.8399 73.5581 40.119 76.7474 42.8222C79.5612 45.2104 81.4618 47.5192 82.9583 51.055C85.7238 57.5871 86.9111 64.3984 88.7741 70.9951C88.7628 70.9741 88.7529 70.9524 88.7444 70.9302C89.8983 74.7432 91.8665 78.9422 94.8494 81.7304C99.8504 86.4037 99.1 82.2587 97.3215 77.4809C94.6419 70.2764 90.842 63.4911 88.136 56.3139C87.1723 53.757 86.3393 51.0192 86.8406 48.2418C87.1771 46.3788 88.7272 45.2266 89.1192 43.9133C90.4875 39.348 83.2109 10.0134 93.253 11.0179C98.6755 11.56 98.7788 24.0126 99.6735 27.526C101.102 33.1374 101.317 37.7673 105.691 41.795C105.798 39.4858 108.034 38.4361 108.264 36.4598C108.536 34.1097 106.695 31.5011 105.865 29.4274C103.585 23.7266 101.665 17.7935 100.883 11.7091C98.5004 -6.8573 112.945 10.5506 117.365 16.6445C118.212 17.8141 119.312 19.2905 120.293 20.6064C122.87 24.0527 124.064 23.85 127.142 26.1096C132.379 29.9554 132.91 41.2977 133.34 47.3175C133.475 49.1754 136.343 78.6394 142.026 72.7821C144.892 69.8288 141.652 56.6396 140.508 52.7373C138.748 46.7371 132.473 37.4618 134.84 31.1253C135.584 29.1348 137.38 28.6935 138.155 26.9373C139.971 22.8383 137.421 16.2097 137.433 11.922C137.459 3.19581 143.44 -1.47484 146.836 9.30219C148.179 13.5674 149.324 16.1697 151.473 20.1361C153.924 24.6614 152.521 29.6141 154.09 34.1467C155.388 37.8927 155.932 34.671 158.811 37.8174C161.2 40.4311 159.993 47.0459 159.528 50.2638C158.882 54.7329 153.753 72.6243 159.894 74.3401C165.491 75.9039 166.9 63.8647 167.08 60.4463C167.533 51.8954 163.858 44.5643 161.143 36.7342C159.82 32.9176 158.128 28.3694 158.078 24.2757C158.036 20.6878 159.804 18.4523 161.063 15.3395C162.528 11.7157 167.98 -5.28379 174.493 2.38041C178.869 7.52966 174.45 16.4505 178.122 21.8625C179.82 17.5548 180.137 5.24582 186.885 4.9189C193.4 4.60396 193.085 18.0577 193.471 22.6464C193.707 25.4611 191.749 41.0973 194.466 43.5645C197.304 46.1399 199.506 42.0536 200.977 39.8952C203.495 36.2049 224.719 1.81565 230.193 7.63199C234.439 12.1408 222.208 21.2257 223.28 25.0962C223.673 26.5188 225.227 25.8735 226.389 26.662C230.648 29.5529 230.867 32.166 227.469 36.2826C239.522 41.3504 223.13 48.4888 217.779 51.0508C214.134 52.7956 198.372 59.964 203.281 66.5633C204.932 68.7822 211.233 68.6385 213.67 70.0006C218.37 72.6294 217.882 77.558 213.093 79.8131C209.8 81.3661 205.444 81.3884 201.897 80.9267C199.861 80.6641 194.537 78.4429 192.771 79.6623C199.056 85.7548 192.238 86.113 186.276 86.7008C181.817 87.1407 170.259 87.7795 168.694 93.583C175.532 94.7481 182.628 94.0534 189.514 94.7319C197.053 95.4784 204.464 95.812 212.311 95.8088C227.191 95.801 242.745 96.4451 257.485 98.115C264.695 98.9313 271.989 99.2927 279.234 99.6762C281.847 99.8127 295.832 98.2075 295.525 103.443C295.109 110.523 275.983 104.095 271.845 105.243C244.903 103.303 217.843 102.916 191.019 100.314C193.161 101.476 197.213 106.71 194.617 109.104C196.553 109.887 200.379 110.22 201.503 112.19C203.987 116.551 199.521 114.813 198.42 116.293C196.541 118.825 202.296 121.03 204.309 122.256C213.693 127.964 222.211 135.907 230.385 143.233C234.87 147.253 242.925 162.666 231.836 163.58C226.302 164.038 219.749 158.003 216.064 154.641C213.738 152.521 208.646 145.292 205.183 144.885C203.942 148.78 206.865 157.941 207.364 161.76C208.423 169.835 208.258 175.792 202.568 182.165C189.05 197.307 190.441 163.733 187.619 164.35C185.634 164.784 184.179 180.221 183.896 182.171C183.271 186.494 180.24 198.517 173.675 197.385C168.167 196.435 168.789 185.17 168.505 181.35C168.266 178.147 167.019 174.667 167.142 171.085C167.242 168.138 168.473 165.306 168.627 162.443C168.788 159.466 166.85 157.313 166.987 153.951C167.139 150.177 168.295 146.013 168.808 142.21C169.665 135.855 171.194 127.185 166.615 121.681C159.367 130.818 162.55 145.33 162.04 156.083C161.784 161.461 161.754 168.068 156.799 171.193C154.808 172.448 156.25 170.403 153.906 172.41C153.38 172.86 152.997 173.803 152.629 174.384C149.998 178.552 147.945 183.02 145.428 187.246C143.868 189.869 139.533 198.966 135.659 198.799C128.634 198.496 134.348 174.764 134.951 170.155C135.409 166.67 136.488 163.013 136.776 159.577C137.042 156.424 135.687 153.896 136.924 150.551C138.525 146.219 141.516 142.332 143.588 138.225C146.374 132.701 147.81 127.204 148.663 121.115C149.017 118.594 150.174 112.777 147.451 111.519C143.075 109.501 141.628 119 140.939 121.407C138.902 128.538 138.682 136.927 134.677 144.235C130.537 151.796 133.19 160.542 130.312 168.454C129.272 171.312 128.257 172.484 125.82 174.134C123.11 175.972 121.759 176.775 119.735 180.113C117.9 183.138 109.863 198.565 105.359 192.188C103.898 190.119 105.763 186.84 106.358 184.822C107.669 180.374 108.734 175.843 110.153 171.428C111.054 168.625 112.756 165.628 112.791 162.619C112.825 159.765 111.712 157.988 112.871 155.012C114.431 151.004 118.835 147.074 119.611 142.964C120.353 139.046 119.909 134.901 121.112 130.774C122.071 127.491 129.75 111.176 127.463 109.511C122.817 106.123 116.835 127.208 116.347 128.803C113.236 138.974 111.439 150.224 107.944 160.358C106.769 163.764 104.565 165.093 102.751 167.487C100.342 170.667 99.2988 175.488 97.0974 178.967C95.3428 181.739 90.752 188.989 88.0209 183.885C86.0459 180.198 89.0722 172.372 89.6482 168.399C90.3018 163.908 90.6183 159.43 91.7821 155.031C92.0315 154.084 92.9119 152.333 92.868 151.408C92.7409 148.846 89.8901 147.557 89.8422 144.582C89.7551 147.566 88.9921 149.82 86.9275 151.89C86.3902 152.432 84.7695 152.88 84.003 153.466C81.6885 155.236 79.9392 158.312 78.1044 160.575C75.5243 163.75 60.5039 177.699 63.0029 165.186C64.0713 159.838 66.0599 154.624 68.2018 149.636C69.8835 145.716 72.7387 141.246 73.2092 136.979C73.6955 132.556 73.1286 131.078 76.1813 127.034C79.3187 122.879 84.6065 117.893 84.8937 112.409C85.4761 101.237 69.4439 124.112 67.8772 126.686C64.7119 131.883 60.9802 137.188 55.7447 140.468C49.9077 144.127 43.7016 145.762 38.4303 150.492C36.0809 152.602 28.9365 160.079 25.5175 156.344C22.15 152.666 30.1622 144.325 31.9194 141.737C33.7351 139.063 36.1523 136.384 37.6748 133.588C39.0554 131.049 39.312 128.3 40.5051 125.672C43.8848 118.217 51.147 116.349 56.3294 110.76C59.0652 107.808 59.325 105.339 54.3192 106.241C51.6164 106.725 48.9184 109.175 46.4868 110.513C42.83 112.528 39 114.277 35.2571 116.131C30.2047 118.631 2.16141 132.999 0.786706 120.905Z" fill="#89B99A"/>
</svg>
