<svg width="420" height="431" viewBox="0 0 420 431" fill="none" xmlns="http://www.w3.org/2000/svg">
<path fill-rule="evenodd" clip-rule="evenodd" d="M356.663 374.318C342.157 341.731 321.436 310.839 301.473 281.39C307.985 283.883 316.956 283.326 323.355 280.892C330.546 278.159 334.601 272.568 338.05 265.987C338.54 265.053 342.104 255.283 343.932 256.009C347.297 257.347 346.115 279.547 346.222 282.285C346.602 292.059 347.729 301.709 348.952 311.412C351.591 332.324 354.629 353.334 356.663 374.318ZM292.046 262.182C287.117 262.043 284.101 254.753 281.299 250.866C286.604 251.183 309.77 247.17 311.934 252.822C315.448 262.015 296.538 262.298 292.046 262.182ZM198.482 84.3092C198.173 87.2296 197.06 98.5069 192.847 94.5598C189.997 91.8866 189.363 81.1135 188.728 77.7654C187.431 70.9432 185.24 62.4804 186.272 55.5176C188.228 42.3403 196.02 52.2319 197.303 59.4908C198.72 67.4944 199.32 76.1948 198.482 84.3092ZM227.582 145.755C233.698 142.714 230.722 149.223 228.239 152.223C221.259 160.664 220.945 150.057 227.582 145.755ZM217.667 113.507C217.096 106.818 218.58 97.9629 221.075 91.8676C223.034 87.0797 228.198 82.9503 230.465 89.5386C232.348 95.0084 226.452 108.315 223.525 113.225C221.146 117.217 218.092 120.508 217.667 113.507ZM192.449 113.049C192.283 125.762 180.858 129.294 182.638 114.936C183.728 106.152 191.756 100.377 192.449 113.049ZM208.15 191.315C207.972 196.579 195.177 213.796 195.381 203.619C195.439 200.717 208.032 186.542 208.15 191.315ZM177.665 170.49C173.663 172.557 162.532 179.685 158.786 177.65C152.8 174.398 160.661 167.715 163.624 166.089C166.86 164.311 175.672 160.047 179.788 161.097C187.337 163.029 181.812 168.115 177.665 170.49ZM128.644 89.5335C118.928 92.5888 116.746 81.1588 115.387 74.3282C114.499 69.86 110.743 60.329 115.934 57.7145C125.264 53.0087 132.237 82.628 128.644 89.5335ZM159.42 93.8923C158.435 89.3013 157.774 84.6454 156.82 80.0496C156.251 77.3164 152.829 67.5507 153.571 65.3832C155.921 58.5057 161.259 62.5835 164.056 68.0714C166.925 73.7056 169.381 85.1108 168.424 91.1558C167.536 96.7628 161.626 102.797 159.42 93.8923ZM146.839 45.3921C145.156 37.4086 151.089 31.4221 156.304 40.6469C162.205 51.0797 150.759 60.3623 146.839 45.3921ZM146.757 183.564C146.414 190.68 121.366 198.984 116.264 195.187C109.547 190.189 124.739 186.294 129.024 184.577C132.644 183.13 146.553 175.348 146.757 183.564ZM105.27 168.809C99.0117 169.923 92.5342 171.688 86.186 171.93C77.4672 172.259 78.0166 167.437 84.9541 162.998C91.0169 159.119 101.643 159.086 108.621 157.064C114.195 155.448 130.963 144.695 134.469 148.883C142.369 158.321 111.184 167.701 105.27 168.809ZM104.172 196.564C103.465 206.214 77.6676 206.922 71.9148 206.922C76.0062 204.579 103.739 183.12 104.172 196.564ZM60.7427 143.272C43.5315 140.991 62.1208 130.128 68.1701 128.38C72.5609 127.108 82.8716 124.34 86.8202 128.3C97.1814 138.692 65.1677 143.88 60.7427 143.272ZM66.174 108.288C67.1583 102.36 96.7846 96.2064 97.8696 101.828C98.7241 106.254 66.3172 120.945 66.174 108.288ZM106.807 119.569C118.979 112.881 133.689 121.748 115.702 129.12C112.172 130.565 102.919 134.494 99.4678 131.392C94.5935 127.013 103.594 121.219 106.807 119.569ZM418.732 176.894C416.399 171.61 413.019 164.215 407.872 168.474C405.873 170.126 403.244 177.589 401.73 180.34C396.425 189.966 390.734 200.737 380.979 206.572C375.14 210.064 355.535 214.697 361.506 202.87C366.597 192.78 380.953 184.818 389.808 178.008C393.913 174.85 403.545 168.488 406.006 163.562C407.881 159.805 405.202 150.268 398.56 151.706C395.546 152.359 394.324 160.865 393.016 163.192C390.947 166.866 387.667 169.582 384.714 172.514C380.035 177.165 374.882 184.15 368.09 185.888C359.921 187.981 357.942 183.121 362.694 176.438C367.342 169.908 376.74 166.335 382.782 161.195C385.787 158.636 395.191 151.211 393.524 146.777C389.891 137.122 382.22 149.964 379.693 152.479C377.713 154.445 365.616 167.208 362.527 164.237C358.814 160.667 369.091 148.779 371.021 146.213C375.091 140.798 376.59 141.272 372.46 137.757C370.101 135.746 364.972 133.715 362.132 133.837C355.166 134.134 347.51 139.783 340.261 140.766C337.26 141.174 327.288 140.032 325.635 144.402C323.089 151.13 351.5 170.661 335.298 172.869C322.776 174.569 313.143 154.479 302.316 161.284C285.204 172.042 309.704 182.035 319.148 185.547C323.383 187.124 337.649 189.035 334.8 196.519C332.481 202.604 320.747 200.053 316.247 198.833C307.72 196.525 300.287 191.551 292.489 187.631C290.385 186.576 282.063 180.936 279.325 181.703C275.403 182.808 269.371 197.108 271.227 200.803C273.516 205.354 288.565 205.331 293.592 205.938C302.087 206.96 312.557 207.683 319.288 213.704C326.72 220.35 316.729 220.285 311.281 219.509C299.526 217.83 287.887 212.463 276.542 209.057C272.585 207.866 266.789 205.122 262.725 205.278C256.572 205.517 257.809 206.064 259.815 211.27C264.29 222.89 269.82 224.693 282.051 226.769C287.63 227.712 312.527 226.905 313.72 234.594C307.212 238.753 292.821 234.706 285.704 233.902C280.497 233.311 271.926 233.679 267.641 230.71C261.807 226.659 255.267 213.057 251.25 207.461C244.123 197.534 237.119 187.664 229.165 178.355C238.619 180.663 247.297 184.588 257.245 183.147C268.121 181.569 278.997 175.478 281.69 164.217C282.676 160.097 282.403 155.74 282.516 151.546C282.55 150.206 282.75 148.844 282.721 147.501C282.596 141.663 283.261 139.83 278.886 143.615C273.908 147.922 269.71 158.431 261.758 159.677C252.954 161.059 258.193 155.078 262.053 151.665C271.587 143.236 281.81 136.093 284.592 122.494C286.109 115.077 286.485 106.811 285.869 99.2035C285.275 91.8924 283.957 91.9826 280.949 97.6273C274.423 109.87 265.173 119.574 253.414 127.031C251.161 128.462 246.073 132.004 243.138 129.425C240.481 127.093 242.941 123.419 244.008 120.565C246.361 114.258 249.422 108.499 252.469 102.515C256.48 94.631 263.145 84.1191 264.244 75.3098C264.959 69.5898 260.557 66.6684 256.81 62.6697C252.427 57.9915 248.565 53.0876 245.358 47.5254C243.122 43.6505 240.862 37.9455 237.192 35.1822C231.496 30.891 232.4 35.6322 232.402 40.2854C232.405 44.0024 234.14 80.8819 225.702 78.1624C217.328 75.4665 224.306 41.6073 223.86 33.9798C223.267 23.8747 209.322 23.8622 201.144 21.22C196.832 19.8242 192.843 18.9231 188.824 16.8842C187.302 16.1123 185.772 13.2505 183.914 13.884C179.694 15.3195 194.503 31.8909 189.748 36.776C181.721 45.0236 176.845 20.6674 175.225 16.1527C173.865 12.3556 172.231 7.90452 170.132 4.51357C166.888 -0.723245 166.269 0.4025 160.626 1.49335C154.983 2.58419 141.905 1.15132 137.408 4.36818C133.059 7.48003 137.913 10.5565 140.372 14.0192C142.701 17.2961 150.204 28.3761 142.819 29.7895C140.152 30.3003 131.504 21.7164 129.224 19.902C124.383 16.0473 125.423 16.9193 120.974 17.5871C115.803 18.36 109.964 19.4315 104.942 20.6714C98.6426 22.2277 97.0923 23.1085 101.223 27.9208C106.068 33.559 113.773 37.4276 115.686 44.999C116.656 48.2832 115.464 51.7315 111.472 51.401C107.212 51.05 105.85 45.0515 104.52 41.7775C102.835 37.6336 99.8578 27.9843 94.8924 26.6589C91.789 25.8302 87.5215 29.2566 84.7164 30.3765C83.0557 31.0384 75.7325 32.4602 74.9429 34.5991C74.0769 36.948 81.7664 42.9844 83.7374 45.7747C88.7669 52.8934 93.9995 61.5914 95.3679 69.6963C95.7541 82.745 82.3853 65.6158 80.42 61.4758C78.2391 56.8851 72.079 33.6559 64.3619 35.1849C62.2605 35.6018 60.5093 40.4513 58.679 41.9143C56.4367 43.7063 53.7315 44.2491 51.1538 45.2446C47.3324 46.7218 43.5082 48.1975 39.8148 49.9291C38.6735 50.4636 35.5585 52.0383 34.9327 52.4033C34.4614 52.6799 33.5091 52.3732 32.9352 52.7222C29.0145 55.111 26.7625 60.5035 23.104 63.5176C21.4624 64.8704 14.4181 68.3105 14.6969 70.4837C14.9506 72.4642 46.412 77.1044 51.0959 78.0972C54.6578 78.8513 69.8422 79.7133 71.3417 83.4155C72.8074 87.0371 69.6315 87.9474 66.545 88.7938C58.8855 90.8949 49.5193 90.646 41.6151 91.2693C36.0314 91.709 13.4224 90.8883 9.97317 96.056C6.4122 101.392 9.68604 105.609 13.8031 106.796C18.3096 108.099 25.1303 106.815 29.6805 106.61C33.3866 106.443 57.2821 102.965 57.9504 108.463C58.6763 114.445 30.3069 116.602 27.4729 117.073C22.0572 117.971 13.1296 117.347 8.20665 119.599C3.79439 121.622 5.32465 122.058 6.08952 126.17C8.73024 140.381 10.419 137.821 22.9353 135.922C27.7269 135.194 33.9401 133.662 38.1471 136.666C43.1744 140.249 42.507 144.052 37.4809 146.219C34.0272 147.711 27.1498 147.464 23.4299 147.637C19.0815 147.841 14.7167 147.63 10.3846 147.251C9.11124 147.14 3.63698 145.666 2.3442 146.365C-2.73436 149.109 7.13056 166.99 12.0377 168.133C14.4195 168.689 18.503 167.429 20.9441 167.202C29.4761 166.398 38.0753 166.374 46.6308 165.653C51.4486 165.248 74.2408 160.956 69.1393 172.042C66.3197 178.167 49.9794 179.781 44.4853 181.068C39.1991 182.307 33.9179 183.355 28.5592 184.224C23.5527 185.036 20.7634 184.225 23.4799 189.947C26.2455 195.77 44.2915 214.484 50.5293 214.563C55.6475 214.625 53.9933 212.091 59.3534 216.041C61.3203 217.494 63.2377 219.754 64.8912 221.547C71.2435 228.419 77.5204 238.049 87.0705 240.739C107.483 246.491 138.601 221.483 153.291 209.889C156.21 207.587 167.639 196.006 172.319 199.308C177.238 202.777 167.039 213.637 165.02 215.716C153.774 227.307 140.114 238.15 124.654 243.231C120.535 244.583 109.314 245.162 105.271 247.871C101.261 250.554 104.958 251.911 108.639 254.894C116.49 261.249 126.908 270.511 137.562 268.143C151.588 265.023 160.285 251.487 168.986 241.048C173.813 235.259 196.454 207.896 194.447 230.907C193.445 242.362 184.904 254.745 176.331 261.844C174.729 263.169 164.841 266.937 164.928 268.073C165.063 269.799 170.641 271.085 171.65 271.408C181.438 274.547 211.183 280.444 216.665 267.98C220.427 259.428 218.299 244.96 217.934 235.951C217.819 233.151 216.325 228.526 220.377 228.039C225.568 227.414 228.171 245.598 228.274 248.449C228.486 254.311 227.02 260.252 224.24 266.002C223.018 268.529 220.147 270.61 223.551 271.36C224.785 271.63 232.426 265.668 233.63 264.666C239.761 259.543 240.769 253.191 241.056 245.626C241.821 225.209 234.336 204.493 225.025 186.531C236.806 201.445 247.938 216.78 258.622 232.502C261.292 236.43 262.983 241.08 265.624 244.878C269.436 250.353 274.338 254.984 278.29 260.818C276.983 260.554 265.854 256.345 265.215 259.428C264.635 262.233 273.898 267.582 275.781 268.828C284.255 274.449 287.733 275.21 293.916 284.482C309.302 307.562 323.1 331.276 336.514 355.534C343.07 367.39 350.049 379.122 355.632 391.478C358.433 397.675 360.528 404.203 362.482 410.71C363.825 415.184 364.764 428.384 370.138 430.306C376.384 432.543 375.511 425.336 374.538 421.884C372.343 414.104 370.93 406.6 369.613 398.575C367.473 385.522 366.192 372.345 363.729 359.334C360.655 343.098 358.41 326.812 356.169 310.448C354.713 299.827 353.624 289.066 353.07 278.354C352.69 270.998 353.73 263.263 352.488 255.969C359.384 263.54 356.694 275.724 369.246 277.853C378.946 279.5 386.782 272.311 393.057 265.903C398.173 260.678 405.568 252.747 407.189 245.378C409.121 236.584 401.039 242.212 395.294 243.591C391.586 244.483 381.141 249.196 378.526 245.508C374.87 240.347 390.202 235.624 393.226 234.096C399.88 230.737 407.3 226.589 412.643 221.232C414.754 219.114 425.025 194.869 416.032 197.413C414.892 197.735 413.017 201.081 412.01 202.223C407.338 207.52 402.163 212.204 396.643 216.595C390.626 221.378 377.403 232.726 368.515 229.109C373.335 218.236 389.449 213.911 398.575 207.371C404.439 203.17 409.628 198.403 413.477 192.231C415.39 189.16 420.339 180.518 418.732 176.894Z" fill="#02362C"/>
</svg>
