<svg width="41" height="41" viewBox="0 0 41 41" fill="none" xmlns="http://www.w3.org/2000/svg">
<path d="M28.9889 15.784C28.6767 15.4736 28.2542 15.2993 27.8139 15.2993C27.3736 15.2993 26.9512 15.4736 26.6389 15.784L20.6556 21.684L14.7556 15.784C14.4433 15.4736 14.0209 15.2993 13.5806 15.2993C13.1403 15.2993 12.7179 15.4736 12.4056 15.784C12.2494 15.9389 12.1254 16.1232 12.0408 16.3263C11.9562 16.5294 11.9126 16.7473 11.9126 16.9673C11.9126 17.1873 11.9562 17.4052 12.0408 17.6083C12.1254 17.8114 12.2494 17.9957 12.4056 18.1506L19.4723 25.2173C19.6272 25.3735 19.8115 25.4975 20.0146 25.5821C20.2177 25.6667 20.4356 25.7103 20.6556 25.7103C20.8756 25.7103 21.0935 25.6667 21.2966 25.5821C21.4997 25.4975 21.684 25.3735 21.8389 25.2173L28.9889 18.1506C29.1451 17.9957 29.2691 17.8114 29.3537 17.6083C29.4384 17.4052 29.4819 17.1873 29.4819 16.9673C29.4819 16.7473 29.4384 16.5294 29.3537 16.3263C29.2691 16.1232 29.1451 15.9389 28.9889 15.784Z" fill="#333333"/>
</svg>
